<mxfile host="app.diagrams.net" agent="Mozilla/5.0 (Macintosh; Intel Mac OS X 10_15_7) AppleWebKit/537.36 (KHTML, like Gecko) Chrome/129.0.0.0 Safari/537.36" version="24.7.16">
  <diagram name="Page-1" id="cRWpz_PAS38rMKibEUz2">
    <mxGraphModel dx="2348" dy="1364" grid="1" gridSize="10" guides="1" tooltips="1" connect="1" arrows="1" fold="1" page="1" pageScale="1" pageWidth="3300" pageHeight="4681" math="0" shadow="0">
      <root>
        <mxCell id="0" />
        <mxCell id="1" parent="0" />
        <mxCell id="zgO68wUfY2NdQf_xR_q_-158" style="edgeStyle=orthogonalEdgeStyle;rounded=0;orthogonalLoop=1;jettySize=auto;html=1;" parent="1" source="zgO68wUfY2NdQf_xR_q_-3" target="zgO68wUfY2NdQf_xR_q_-155" edge="1">
          <mxGeometry relative="1" as="geometry" />
        </mxCell>
        <mxCell id="zgO68wUfY2NdQf_xR_q_-3" value="" style="shape=cylinder3;whiteSpace=wrap;html=1;boundedLbl=1;backgroundOutline=1;size=15;" parent="1" vertex="1">
          <mxGeometry x="430" y="450" width="30" height="100" as="geometry" />
        </mxCell>
        <mxCell id="zgO68wUfY2NdQf_xR_q_-175" style="edgeStyle=orthogonalEdgeStyle;rounded=0;orthogonalLoop=1;jettySize=auto;html=1;" parent="1" source="zgO68wUfY2NdQf_xR_q_-4" target="zgO68wUfY2NdQf_xR_q_-173" edge="1">
          <mxGeometry relative="1" as="geometry" />
        </mxCell>
        <mxCell id="zgO68wUfY2NdQf_xR_q_-4" value="" style="shape=cylinder3;whiteSpace=wrap;html=1;boundedLbl=1;backgroundOutline=1;size=15;" parent="1" vertex="1">
          <mxGeometry x="1380" y="430" width="30" height="100" as="geometry" />
        </mxCell>
        <mxCell id="zgO68wUfY2NdQf_xR_q_-5" value="Exchange" style="shape=hexagon;perimeter=hexagonPerimeter2;whiteSpace=wrap;html=1;fixedSize=1;" parent="1" vertex="1">
          <mxGeometry x="830" y="340" width="80" height="70" as="geometry" />
        </mxCell>
        <mxCell id="zgO68wUfY2NdQf_xR_q_-6" style="edgeStyle=orthogonalEdgeStyle;rounded=0;orthogonalLoop=1;jettySize=auto;html=1;" parent="1" source="zgO68wUfY2NdQf_xR_q_-5" target="zgO68wUfY2NdQf_xR_q_-4" edge="1">
          <mxGeometry relative="1" as="geometry" />
        </mxCell>
        <mxCell id="zgO68wUfY2NdQf_xR_q_-7" style="edgeStyle=orthogonalEdgeStyle;rounded=0;orthogonalLoop=1;jettySize=auto;html=1;" parent="1" source="zgO68wUfY2NdQf_xR_q_-5" target="zgO68wUfY2NdQf_xR_q_-3" edge="1">
          <mxGeometry relative="1" as="geometry" />
        </mxCell>
        <mxCell id="zgO68wUfY2NdQf_xR_q_-124" style="edgeStyle=orthogonalEdgeStyle;rounded=0;orthogonalLoop=1;jettySize=auto;html=1;entryX=0;entryY=0;entryDx=0;entryDy=67.5;entryPerimeter=0;" parent="1" source="zgO68wUfY2NdQf_xR_q_-13" target="zgO68wUfY2NdQf_xR_q_-123" edge="1">
          <mxGeometry relative="1" as="geometry">
            <mxPoint x="185" y="2100" as="targetPoint" />
            <Array as="points">
              <mxPoint x="185" y="2108" />
            </Array>
          </mxGeometry>
        </mxCell>
        <mxCell id="zgO68wUfY2NdQf_xR_q_-249" style="edgeStyle=orthogonalEdgeStyle;rounded=0;orthogonalLoop=1;jettySize=auto;html=1;" parent="1" source="zgO68wUfY2NdQf_xR_q_-13" target="zgO68wUfY2NdQf_xR_q_-248" edge="1">
          <mxGeometry relative="1" as="geometry" />
        </mxCell>
        <mxCell id="zgO68wUfY2NdQf_xR_q_-13" value="Contador&lt;div&gt;Sistema Operativo&lt;/div&gt;" style="ellipse;shape=umlControl;whiteSpace=wrap;html=1;" parent="1" vertex="1">
          <mxGeometry x="150" y="1300" width="70" height="80" as="geometry" />
        </mxCell>
        <mxCell id="zgO68wUfY2NdQf_xR_q_-254" style="edgeStyle=orthogonalEdgeStyle;rounded=0;orthogonalLoop=1;jettySize=auto;html=1;" parent="1" source="zgO68wUfY2NdQf_xR_q_-14" target="zgO68wUfY2NdQf_xR_q_-252" edge="1">
          <mxGeometry relative="1" as="geometry" />
        </mxCell>
        <mxCell id="zgO68wUfY2NdQf_xR_q_-14" value="" style="shape=cylinder3;whiteSpace=wrap;html=1;boundedLbl=1;backgroundOutline=1;size=15;" parent="1" vertex="1">
          <mxGeometry x="170" y="890" width="30" height="100" as="geometry" />
        </mxCell>
        <mxCell id="zgO68wUfY2NdQf_xR_q_-20" style="edgeStyle=orthogonalEdgeStyle;rounded=0;orthogonalLoop=1;jettySize=auto;html=1;" parent="1" source="zgO68wUfY2NdQf_xR_q_-17" target="zgO68wUfY2NdQf_xR_q_-13" edge="1">
          <mxGeometry relative="1" as="geometry" />
        </mxCell>
        <mxCell id="zgO68wUfY2NdQf_xR_q_-17" value="" style="shape=cylinder3;whiteSpace=wrap;html=1;boundedLbl=1;backgroundOutline=1;size=15;" parent="1" vertex="1">
          <mxGeometry x="170" y="1160" width="30" height="100" as="geometry" />
        </mxCell>
        <mxCell id="zgO68wUfY2NdQf_xR_q_-23" style="edgeStyle=orthogonalEdgeStyle;rounded=0;orthogonalLoop=1;jettySize=auto;html=1;" parent="1" source="zgO68wUfY2NdQf_xR_q_-21" target="zgO68wUfY2NdQf_xR_q_-14" edge="1">
          <mxGeometry relative="1" as="geometry" />
        </mxCell>
        <mxCell id="zgO68wUfY2NdQf_xR_q_-26" style="edgeStyle=orthogonalEdgeStyle;rounded=0;orthogonalLoop=1;jettySize=auto;html=1;" parent="1" source="zgO68wUfY2NdQf_xR_q_-21" target="zgO68wUfY2NdQf_xR_q_-25" edge="1">
          <mxGeometry relative="1" as="geometry" />
        </mxCell>
        <mxCell id="zgO68wUfY2NdQf_xR_q_-21" value="Exchange" style="shape=hexagon;perimeter=hexagonPerimeter2;whiteSpace=wrap;html=1;fixedSize=1;" parent="1" vertex="1">
          <mxGeometry x="405" y="750" width="80" height="70" as="geometry" />
        </mxCell>
        <mxCell id="zgO68wUfY2NdQf_xR_q_-165" style="edgeStyle=orthogonalEdgeStyle;rounded=0;orthogonalLoop=1;jettySize=auto;html=1;" parent="1" source="zgO68wUfY2NdQf_xR_q_-25" target="zgO68wUfY2NdQf_xR_q_-149" edge="1">
          <mxGeometry relative="1" as="geometry" />
        </mxCell>
        <mxCell id="zgO68wUfY2NdQf_xR_q_-25" value="" style="shape=cylinder3;whiteSpace=wrap;html=1;boundedLbl=1;backgroundOutline=1;size=15;" parent="1" vertex="1">
          <mxGeometry x="430" y="890" width="30" height="100" as="geometry" />
        </mxCell>
        <mxCell id="zgO68wUfY2NdQf_xR_q_-169" style="edgeStyle=orthogonalEdgeStyle;rounded=0;orthogonalLoop=1;jettySize=auto;html=1;" parent="1" source="zgO68wUfY2NdQf_xR_q_-29" target="zgO68wUfY2NdQf_xR_q_-135" edge="1">
          <mxGeometry relative="1" as="geometry" />
        </mxCell>
        <mxCell id="zgO68wUfY2NdQf_xR_q_-29" value="" style="shape=cylinder3;whiteSpace=wrap;html=1;boundedLbl=1;backgroundOutline=1;size=15;" parent="1" vertex="1">
          <mxGeometry x="410" y="1170" width="30" height="100" as="geometry" />
        </mxCell>
        <mxCell id="zgO68wUfY2NdQf_xR_q_-39" style="edgeStyle=orthogonalEdgeStyle;rounded=0;orthogonalLoop=1;jettySize=auto;html=1;" parent="1" source="zgO68wUfY2NdQf_xR_q_-33" target="zgO68wUfY2NdQf_xR_q_-38" edge="1">
          <mxGeometry relative="1" as="geometry" />
        </mxCell>
        <mxCell id="zgO68wUfY2NdQf_xR_q_-125" style="edgeStyle=orthogonalEdgeStyle;rounded=0;orthogonalLoop=1;jettySize=auto;html=1;entryX=0;entryY=0;entryDx=0;entryDy=32.5;entryPerimeter=0;" parent="1" source="zgO68wUfY2NdQf_xR_q_-33" target="zgO68wUfY2NdQf_xR_q_-123" edge="1">
          <mxGeometry relative="1" as="geometry">
            <mxPoint x="425" y="2110" as="targetPoint" />
            <Array as="points">
              <mxPoint x="425" y="2040" />
              <mxPoint x="426" y="2073" />
            </Array>
          </mxGeometry>
        </mxCell>
        <mxCell id="zgO68wUfY2NdQf_xR_q_-33" value="&lt;div&gt;Top 10&lt;/div&gt;&lt;div&gt;AverageTime&lt;/div&gt;" style="ellipse;shape=umlControl;whiteSpace=wrap;html=1;" parent="1" vertex="1">
          <mxGeometry x="390" y="1590" width="70" height="80" as="geometry" />
        </mxCell>
        <mxCell id="zgO68wUfY2NdQf_xR_q_-37" style="edgeStyle=orthogonalEdgeStyle;rounded=0;orthogonalLoop=1;jettySize=auto;html=1;" parent="1" source="zgO68wUfY2NdQf_xR_q_-34" target="zgO68wUfY2NdQf_xR_q_-33" edge="1">
          <mxGeometry relative="1" as="geometry" />
        </mxCell>
        <mxCell id="zgO68wUfY2NdQf_xR_q_-34" value="" style="shape=cylinder3;whiteSpace=wrap;html=1;boundedLbl=1;backgroundOutline=1;size=15;" parent="1" vertex="1">
          <mxGeometry x="410" y="1430" width="30" height="100" as="geometry" />
        </mxCell>
        <mxCell id="zgO68wUfY2NdQf_xR_q_-38" value="Top 10&lt;div&gt;AverageTime&lt;/div&gt;&lt;div&gt;Data&lt;/div&gt;" style="ellipse;shape=umlEntity;whiteSpace=wrap;html=1;" parent="1" vertex="1">
          <mxGeometry x="540" y="1590" width="80" height="80" as="geometry" />
        </mxCell>
        <mxCell id="zgO68wUfY2NdQf_xR_q_-45" style="edgeStyle=orthogonalEdgeStyle;rounded=0;orthogonalLoop=1;jettySize=auto;html=1;" parent="1" source="zgO68wUfY2NdQf_xR_q_-42" target="zgO68wUfY2NdQf_xR_q_-29" edge="1">
          <mxGeometry relative="1" as="geometry">
            <mxPoint x="600" y="1220" as="targetPoint" />
            <Array as="points">
              <mxPoint x="600" y="1140" />
              <mxPoint x="425" y="1140" />
            </Array>
          </mxGeometry>
        </mxCell>
        <mxCell id="zgO68wUfY2NdQf_xR_q_-47" style="edgeStyle=orthogonalEdgeStyle;rounded=0;orthogonalLoop=1;jettySize=auto;html=1;" parent="1" source="zgO68wUfY2NdQf_xR_q_-42" target="zgO68wUfY2NdQf_xR_q_-46" edge="1">
          <mxGeometry relative="1" as="geometry" />
        </mxCell>
        <mxCell id="zgO68wUfY2NdQf_xR_q_-42" value="Exchange" style="shape=hexagon;perimeter=hexagonPerimeter2;whiteSpace=wrap;html=1;fixedSize=1;" parent="1" vertex="1">
          <mxGeometry x="560" y="1045" width="80" height="70" as="geometry" />
        </mxCell>
        <mxCell id="zgO68wUfY2NdQf_xR_q_-200" style="edgeStyle=orthogonalEdgeStyle;rounded=0;orthogonalLoop=1;jettySize=auto;html=1;" parent="1" source="zgO68wUfY2NdQf_xR_q_-46" target="zgO68wUfY2NdQf_xR_q_-196" edge="1">
          <mxGeometry relative="1" as="geometry" />
        </mxCell>
        <mxCell id="zgO68wUfY2NdQf_xR_q_-46" value="" style="shape=cylinder3;whiteSpace=wrap;html=1;boundedLbl=1;backgroundOutline=1;size=15;" parent="1" vertex="1">
          <mxGeometry x="780" y="1120" width="30" height="100" as="geometry" />
        </mxCell>
        <mxCell id="zgO68wUfY2NdQf_xR_q_-54" style="edgeStyle=orthogonalEdgeStyle;rounded=0;orthogonalLoop=1;jettySize=auto;html=1;" parent="1" source="zgO68wUfY2NdQf_xR_q_-49" target="zgO68wUfY2NdQf_xR_q_-52" edge="1">
          <mxGeometry relative="1" as="geometry" />
        </mxCell>
        <mxCell id="zgO68wUfY2NdQf_xR_q_-49" value="" style="shape=cylinder3;whiteSpace=wrap;html=1;boundedLbl=1;backgroundOutline=1;size=15;" parent="1" vertex="1">
          <mxGeometry x="780" y="1430" width="30" height="100" as="geometry" />
        </mxCell>
        <mxCell id="zgO68wUfY2NdQf_xR_q_-51" style="edgeStyle=orthogonalEdgeStyle;rounded=0;orthogonalLoop=1;jettySize=auto;html=1;" parent="1" source="zgO68wUfY2NdQf_xR_q_-52" target="zgO68wUfY2NdQf_xR_q_-53" edge="1">
          <mxGeometry relative="1" as="geometry" />
        </mxCell>
        <mxCell id="zgO68wUfY2NdQf_xR_q_-126" style="edgeStyle=orthogonalEdgeStyle;rounded=0;orthogonalLoop=1;jettySize=auto;html=1;" parent="1" source="zgO68wUfY2NdQf_xR_q_-52" target="zgO68wUfY2NdQf_xR_q_-123" edge="1">
          <mxGeometry relative="1" as="geometry">
            <Array as="points">
              <mxPoint x="795" y="1850" />
              <mxPoint x="960" y="1850" />
            </Array>
          </mxGeometry>
        </mxCell>
        <mxCell id="zgO68wUfY2NdQf_xR_q_-52" value="&lt;div&gt;Top 5&lt;/div&gt;&lt;div&gt;con más reviews&lt;/div&gt;" style="ellipse;shape=umlControl;whiteSpace=wrap;html=1;" parent="1" vertex="1">
          <mxGeometry x="760" y="1580" width="70" height="80" as="geometry" />
        </mxCell>
        <mxCell id="zgO68wUfY2NdQf_xR_q_-53" value="&lt;div&gt;Top 5&lt;/div&gt;&lt;div&gt;con más reviews&lt;/div&gt;&lt;div&gt;Data&lt;/div&gt;" style="ellipse;shape=umlEntity;whiteSpace=wrap;html=1;" parent="1" vertex="1">
          <mxGeometry x="920" y="1580" width="80" height="80" as="geometry" />
        </mxCell>
        <mxCell id="zgO68wUfY2NdQf_xR_q_-186" style="edgeStyle=orthogonalEdgeStyle;rounded=0;orthogonalLoop=1;jettySize=auto;html=1;" parent="1" source="zgO68wUfY2NdQf_xR_q_-57" target="zgO68wUfY2NdQf_xR_q_-180" edge="1">
          <mxGeometry relative="1" as="geometry" />
        </mxCell>
        <mxCell id="zgO68wUfY2NdQf_xR_q_-57" value="" style="shape=cylinder3;whiteSpace=wrap;html=1;boundedLbl=1;backgroundOutline=1;size=15;" parent="1" vertex="1">
          <mxGeometry x="1380" y="770" width="30" height="100" as="geometry" />
        </mxCell>
        <mxCell id="zgO68wUfY2NdQf_xR_q_-97" style="edgeStyle=orthogonalEdgeStyle;rounded=0;orthogonalLoop=1;jettySize=auto;html=1;entryX=0.5;entryY=0;entryDx=0;entryDy=0;entryPerimeter=0;" parent="1" source="zgO68wUfY2NdQf_xR_q_-181" target="zgO68wUfY2NdQf_xR_q_-99" edge="1">
          <mxGeometry relative="1" as="geometry">
            <mxPoint x="1830" y="1130" as="targetPoint" />
            <mxPoint x="1720" y="991" as="sourcePoint" />
          </mxGeometry>
        </mxCell>
        <mxCell id="zgO68wUfY2NdQf_xR_q_-107" value="Los que no pasan el filtro&lt;div&gt;Las review negativas&lt;/div&gt;" style="edgeLabel;html=1;align=center;verticalAlign=middle;resizable=0;points=[];" parent="zgO68wUfY2NdQf_xR_q_-97" vertex="1" connectable="0">
          <mxGeometry x="-0.6063" y="2" relative="1" as="geometry">
            <mxPoint as="offset" />
          </mxGeometry>
        </mxCell>
        <mxCell id="zgO68wUfY2NdQf_xR_q_-64" value="Exchange" style="shape=hexagon;perimeter=hexagonPerimeter2;whiteSpace=wrap;html=1;fixedSize=1;" parent="1" vertex="1">
          <mxGeometry x="1355" y="1090" width="80" height="70" as="geometry" />
        </mxCell>
        <mxCell id="zgO68wUfY2NdQf_xR_q_-199" style="edgeStyle=orthogonalEdgeStyle;rounded=0;orthogonalLoop=1;jettySize=auto;html=1;" parent="1" source="zgO68wUfY2NdQf_xR_q_-67" target="zgO68wUfY2NdQf_xR_q_-197" edge="1">
          <mxGeometry relative="1" as="geometry">
            <Array as="points">
              <mxPoint x="1255" y="1330" />
            </Array>
          </mxGeometry>
        </mxCell>
        <mxCell id="zgO68wUfY2NdQf_xR_q_-67" value="" style="shape=cylinder3;whiteSpace=wrap;html=1;boundedLbl=1;backgroundOutline=1;size=15;" parent="1" vertex="1">
          <mxGeometry x="1240" y="1150" width="30" height="100" as="geometry" />
        </mxCell>
        <mxCell id="zgO68wUfY2NdQf_xR_q_-192" style="edgeStyle=orthogonalEdgeStyle;rounded=0;orthogonalLoop=1;jettySize=auto;html=1;" parent="1" source="zgO68wUfY2NdQf_xR_q_-70" target="zgO68wUfY2NdQf_xR_q_-190" edge="1">
          <mxGeometry relative="1" as="geometry" />
        </mxCell>
        <mxCell id="zgO68wUfY2NdQf_xR_q_-70" value="" style="shape=cylinder3;whiteSpace=wrap;html=1;boundedLbl=1;backgroundOutline=1;size=15;" parent="1" vertex="1">
          <mxGeometry x="1500" y="1150" width="30" height="100" as="geometry" />
        </mxCell>
        <mxCell id="zgO68wUfY2NdQf_xR_q_-71" style="edgeStyle=orthogonalEdgeStyle;rounded=0;orthogonalLoop=1;jettySize=auto;html=1;entryX=0.5;entryY=0;entryDx=0;entryDy=0;entryPerimeter=0;" parent="1" source="zgO68wUfY2NdQf_xR_q_-64" target="zgO68wUfY2NdQf_xR_q_-70" edge="1">
          <mxGeometry relative="1" as="geometry" />
        </mxCell>
        <mxCell id="zgO68wUfY2NdQf_xR_q_-74" style="edgeStyle=orthogonalEdgeStyle;rounded=0;orthogonalLoop=1;jettySize=auto;html=1;entryX=0.5;entryY=0;entryDx=0;entryDy=0;entryPerimeter=0;" parent="1" source="zgO68wUfY2NdQf_xR_q_-64" target="zgO68wUfY2NdQf_xR_q_-67" edge="1">
          <mxGeometry relative="1" as="geometry" />
        </mxCell>
        <mxCell id="zgO68wUfY2NdQf_xR_q_-244" style="edgeStyle=orthogonalEdgeStyle;rounded=0;orthogonalLoop=1;jettySize=auto;html=1;" parent="1" source="zgO68wUfY2NdQf_xR_q_-84" target="zgO68wUfY2NdQf_xR_q_-240" edge="1">
          <mxGeometry relative="1" as="geometry" />
        </mxCell>
        <mxCell id="zgO68wUfY2NdQf_xR_q_-84" value="" style="shape=cylinder3;whiteSpace=wrap;html=1;boundedLbl=1;backgroundOutline=1;size=15;" parent="1" vertex="1">
          <mxGeometry x="1500" y="1830" width="30" height="100" as="geometry" />
        </mxCell>
        <mxCell id="zgO68wUfY2NdQf_xR_q_-182" style="edgeStyle=orthogonalEdgeStyle;rounded=0;orthogonalLoop=1;jettySize=auto;html=1;" parent="1" source="zgO68wUfY2NdQf_xR_q_-90" target="zgO68wUfY2NdQf_xR_q_-152" edge="1">
          <mxGeometry relative="1" as="geometry" />
        </mxCell>
        <mxCell id="zgO68wUfY2NdQf_xR_q_-90" value="" style="shape=cylinder3;whiteSpace=wrap;html=1;boundedLbl=1;backgroundOutline=1;size=15;" parent="1" vertex="1">
          <mxGeometry x="1030" y="860" width="30" height="100" as="geometry" />
        </mxCell>
        <mxCell id="zgO68wUfY2NdQf_xR_q_-91" style="edgeStyle=orthogonalEdgeStyle;rounded=0;orthogonalLoop=1;jettySize=auto;html=1;entryX=0.5;entryY=0;entryDx=0;entryDy=0;entryPerimeter=0;" parent="1" source="zgO68wUfY2NdQf_xR_q_-21" target="zgO68wUfY2NdQf_xR_q_-90" edge="1">
          <mxGeometry relative="1" as="geometry" />
        </mxCell>
        <mxCell id="zgO68wUfY2NdQf_xR_q_-216" style="edgeStyle=orthogonalEdgeStyle;rounded=0;orthogonalLoop=1;jettySize=auto;html=1;" parent="1" source="zgO68wUfY2NdQf_xR_q_-93" target="zgO68wUfY2NdQf_xR_q_-213" edge="1">
          <mxGeometry relative="1" as="geometry">
            <Array as="points">
              <mxPoint x="1045" y="1680" />
            </Array>
          </mxGeometry>
        </mxCell>
        <mxCell id="zgO68wUfY2NdQf_xR_q_-93" value="" style="shape=cylinder3;whiteSpace=wrap;html=1;boundedLbl=1;backgroundOutline=1;size=15;" parent="1" vertex="1">
          <mxGeometry x="1030" y="1540" width="30" height="100" as="geometry" />
        </mxCell>
        <mxCell id="zgO68wUfY2NdQf_xR_q_-229" style="edgeStyle=orthogonalEdgeStyle;rounded=0;orthogonalLoop=1;jettySize=auto;html=1;" parent="1" source="zgO68wUfY2NdQf_xR_q_-99" target="zgO68wUfY2NdQf_xR_q_-226" edge="1">
          <mxGeometry relative="1" as="geometry" />
        </mxCell>
        <mxCell id="zgO68wUfY2NdQf_xR_q_-99" value="" style="shape=cylinder3;whiteSpace=wrap;html=1;boundedLbl=1;backgroundOutline=1;size=15;" parent="1" vertex="1">
          <mxGeometry x="1820" y="1190" width="30" height="100" as="geometry" />
        </mxCell>
        <mxCell id="zgO68wUfY2NdQf_xR_q_-103" style="edgeStyle=orthogonalEdgeStyle;rounded=0;orthogonalLoop=1;jettySize=auto;html=1;" parent="1" source="zgO68wUfY2NdQf_xR_q_-101" target="zgO68wUfY2NdQf_xR_q_-93" edge="1">
          <mxGeometry relative="1" as="geometry" />
        </mxCell>
        <mxCell id="zgO68wUfY2NdQf_xR_q_-101" value="Exchange" style="shape=hexagon;perimeter=hexagonPerimeter2;whiteSpace=wrap;html=1;fixedSize=1;" parent="1" vertex="1">
          <mxGeometry x="1005" y="1410" width="80" height="70" as="geometry" />
        </mxCell>
        <mxCell id="zgO68wUfY2NdQf_xR_q_-230" style="edgeStyle=orthogonalEdgeStyle;rounded=0;orthogonalLoop=1;jettySize=auto;html=1;" parent="1" source="zgO68wUfY2NdQf_xR_q_-104" target="zgO68wUfY2NdQf_xR_q_-225" edge="1">
          <mxGeometry relative="1" as="geometry" />
        </mxCell>
        <mxCell id="zgO68wUfY2NdQf_xR_q_-104" value="" style="shape=cylinder3;whiteSpace=wrap;html=1;boundedLbl=1;backgroundOutline=1;size=15;rotation=90;" parent="1" vertex="1">
          <mxGeometry x="1220" y="1395" width="30" height="100" as="geometry" />
        </mxCell>
        <mxCell id="zgO68wUfY2NdQf_xR_q_-105" style="edgeStyle=orthogonalEdgeStyle;rounded=0;orthogonalLoop=1;jettySize=auto;html=1;entryX=0.5;entryY=1;entryDx=0;entryDy=0;entryPerimeter=0;" parent="1" source="zgO68wUfY2NdQf_xR_q_-101" target="zgO68wUfY2NdQf_xR_q_-104" edge="1">
          <mxGeometry relative="1" as="geometry" />
        </mxCell>
        <mxCell id="zgO68wUfY2NdQf_xR_q_-119" style="edgeStyle=orthogonalEdgeStyle;rounded=0;orthogonalLoop=1;jettySize=auto;html=1;" parent="1" source="zgO68wUfY2NdQf_xR_q_-108" target="zgO68wUfY2NdQf_xR_q_-118" edge="1">
          <mxGeometry relative="1" as="geometry" />
        </mxCell>
        <mxCell id="zgO68wUfY2NdQf_xR_q_-108" value="Percentil&lt;div&gt;90&lt;/div&gt;" style="ellipse;shape=umlControl;whiteSpace=wrap;html=1;" parent="1" vertex="1">
          <mxGeometry x="1800" y="1680" width="70" height="80" as="geometry" />
        </mxCell>
        <mxCell id="zgO68wUfY2NdQf_xR_q_-111" style="edgeStyle=orthogonalEdgeStyle;rounded=0;orthogonalLoop=1;jettySize=auto;html=1;" parent="1" source="zgO68wUfY2NdQf_xR_q_-109" target="zgO68wUfY2NdQf_xR_q_-108" edge="1">
          <mxGeometry relative="1" as="geometry" />
        </mxCell>
        <mxCell id="zgO68wUfY2NdQf_xR_q_-109" value="" style="shape=cylinder3;whiteSpace=wrap;html=1;boundedLbl=1;backgroundOutline=1;size=15;" parent="1" vertex="1">
          <mxGeometry x="1820" y="1530" width="30" height="100" as="geometry" />
        </mxCell>
        <mxCell id="zgO68wUfY2NdQf_xR_q_-118" value="Percentil 90&lt;div&gt;Dataset&lt;/div&gt;" style="ellipse;shape=umlEntity;whiteSpace=wrap;html=1;" parent="1" vertex="1">
          <mxGeometry x="1960" y="1680" width="80" height="80" as="geometry" />
        </mxCell>
        <mxCell id="zgO68wUfY2NdQf_xR_q_-133" style="edgeStyle=orthogonalEdgeStyle;rounded=0;orthogonalLoop=1;jettySize=auto;html=1;exitX=0.5;exitY=1;exitDx=0;exitDy=0;exitPerimeter=0;" parent="1" source="zgO68wUfY2NdQf_xR_q_-123" target="zgO68wUfY2NdQf_xR_q_-131" edge="1">
          <mxGeometry relative="1" as="geometry">
            <mxPoint x="90" y="300" as="targetPoint" />
            <mxPoint x="715" y="2240" as="sourcePoint" />
            <Array as="points">
              <mxPoint x="960" y="2370" />
              <mxPoint x="90" y="2370" />
            </Array>
          </mxGeometry>
        </mxCell>
        <mxCell id="zgO68wUfY2NdQf_xR_q_-123" value="" style="shape=cylinder3;whiteSpace=wrap;html=1;boundedLbl=1;backgroundOutline=1;size=15;" parent="1" vertex="1">
          <mxGeometry x="945" y="2040" width="30" height="100" as="geometry" />
        </mxCell>
        <mxCell id="zgO68wUfY2NdQf_xR_q_-128" style="edgeStyle=orthogonalEdgeStyle;rounded=0;orthogonalLoop=1;jettySize=auto;html=1;entryX=1;entryY=1;entryDx=0;entryDy=-15;entryPerimeter=0;" parent="1" source="zgO68wUfY2NdQf_xR_q_-108" target="zgO68wUfY2NdQf_xR_q_-123" edge="1">
          <mxGeometry relative="1" as="geometry">
            <Array as="points">
              <mxPoint x="1835" y="2125" />
            </Array>
          </mxGeometry>
        </mxCell>
        <mxCell id="zgO68wUfY2NdQf_xR_q_-132" style="edgeStyle=orthogonalEdgeStyle;rounded=0;orthogonalLoop=1;jettySize=auto;html=1;" parent="1" source="zgO68wUfY2NdQf_xR_q_-131" target="zgO68wUfY2NdQf_xR_q_-5" edge="1">
          <mxGeometry relative="1" as="geometry" />
        </mxCell>
        <mxCell id="zgO68wUfY2NdQf_xR_q_-131" value="Client&lt;div&gt;Handler&lt;/div&gt;" style="shape=umlBoundary;whiteSpace=wrap;html=1;" parent="1" vertex="1">
          <mxGeometry x="40" y="180" width="110" height="90" as="geometry" />
        </mxCell>
        <mxCell id="zgO68wUfY2NdQf_xR_q_-157" value="" style="group" parent="1" vertex="1" connectable="0">
          <mxGeometry x="390" y="610" width="110" height="90" as="geometry" />
        </mxCell>
        <mxCell id="zgO68wUfY2NdQf_xR_q_-154" value="" style="ellipse;shape=umlControl;whiteSpace=wrap;html=1;" parent="zgO68wUfY2NdQf_xR_q_-157" vertex="1">
          <mxGeometry width="70" height="80" as="geometry" />
        </mxCell>
        <mxCell id="zgO68wUfY2NdQf_xR_q_-155" value="" style="ellipse;shape=umlControl;whiteSpace=wrap;html=1;" parent="zgO68wUfY2NdQf_xR_q_-157" vertex="1">
          <mxGeometry x="20" y="5" width="70" height="80" as="geometry" />
        </mxCell>
        <mxCell id="zgO68wUfY2NdQf_xR_q_-156" value="Proyección&lt;div&gt;Games&lt;/div&gt;" style="ellipse;shape=umlControl;whiteSpace=wrap;html=1;" parent="zgO68wUfY2NdQf_xR_q_-157" vertex="1">
          <mxGeometry x="40" y="10" width="70" height="80" as="geometry" />
        </mxCell>
        <mxCell id="zgO68wUfY2NdQf_xR_q_-159" style="edgeStyle=orthogonalEdgeStyle;rounded=0;orthogonalLoop=1;jettySize=auto;html=1;" parent="1" source="zgO68wUfY2NdQf_xR_q_-155" target="zgO68wUfY2NdQf_xR_q_-21" edge="1">
          <mxGeometry relative="1" as="geometry" />
        </mxCell>
        <mxCell id="zgO68wUfY2NdQf_xR_q_-164" value="" style="group" parent="1" vertex="1" connectable="0">
          <mxGeometry x="390" y="1030" width="110" height="90" as="geometry" />
        </mxCell>
        <mxCell id="zgO68wUfY2NdQf_xR_q_-148" value="" style="ellipse;shape=umlControl;whiteSpace=wrap;html=1;" parent="zgO68wUfY2NdQf_xR_q_-164" vertex="1">
          <mxGeometry width="70" height="80" as="geometry" />
        </mxCell>
        <mxCell id="zgO68wUfY2NdQf_xR_q_-149" value="" style="ellipse;shape=umlControl;whiteSpace=wrap;html=1;" parent="zgO68wUfY2NdQf_xR_q_-164" vertex="1">
          <mxGeometry x="20" y="5" width="70" height="80" as="geometry" />
        </mxCell>
        <mxCell id="zgO68wUfY2NdQf_xR_q_-150" value="Filtro por&lt;div&gt;Género&lt;/div&gt;&lt;div&gt;Indie&lt;/div&gt;" style="ellipse;shape=umlControl;whiteSpace=wrap;html=1;" parent="zgO68wUfY2NdQf_xR_q_-164" vertex="1">
          <mxGeometry x="40" y="10" width="70" height="80" as="geometry" />
        </mxCell>
        <mxCell id="zgO68wUfY2NdQf_xR_q_-166" style="edgeStyle=orthogonalEdgeStyle;rounded=0;orthogonalLoop=1;jettySize=auto;html=1;" parent="1" source="zgO68wUfY2NdQf_xR_q_-150" target="zgO68wUfY2NdQf_xR_q_-42" edge="1">
          <mxGeometry relative="1" as="geometry" />
        </mxCell>
        <mxCell id="zgO68wUfY2NdQf_xR_q_-168" value="" style="group" parent="1" vertex="1" connectable="0">
          <mxGeometry x="370" y="1320" width="110" height="90" as="geometry" />
        </mxCell>
        <mxCell id="zgO68wUfY2NdQf_xR_q_-31" value="" style="ellipse;shape=umlControl;whiteSpace=wrap;html=1;" parent="zgO68wUfY2NdQf_xR_q_-168" vertex="1">
          <mxGeometry width="70" height="80" as="geometry" />
        </mxCell>
        <mxCell id="zgO68wUfY2NdQf_xR_q_-135" value="" style="ellipse;shape=umlControl;whiteSpace=wrap;html=1;" parent="zgO68wUfY2NdQf_xR_q_-168" vertex="1">
          <mxGeometry x="20" y="5" width="70" height="80" as="geometry" />
        </mxCell>
        <mxCell id="zgO68wUfY2NdQf_xR_q_-136" value="Filtro por&lt;div&gt;Decada&lt;/div&gt;" style="ellipse;shape=umlControl;whiteSpace=wrap;html=1;" parent="zgO68wUfY2NdQf_xR_q_-168" vertex="1">
          <mxGeometry x="40" y="10" width="70" height="80" as="geometry" />
        </mxCell>
        <mxCell id="zgO68wUfY2NdQf_xR_q_-170" style="edgeStyle=orthogonalEdgeStyle;rounded=0;orthogonalLoop=1;jettySize=auto;html=1;" parent="1" source="zgO68wUfY2NdQf_xR_q_-135" target="zgO68wUfY2NdQf_xR_q_-34" edge="1">
          <mxGeometry relative="1" as="geometry" />
        </mxCell>
        <mxCell id="zgO68wUfY2NdQf_xR_q_-171" value="" style="group" parent="1" vertex="1" connectable="0">
          <mxGeometry x="1340" y="610" width="110" height="90" as="geometry" />
        </mxCell>
        <mxCell id="zgO68wUfY2NdQf_xR_q_-172" value="" style="ellipse;shape=umlControl;whiteSpace=wrap;html=1;" parent="zgO68wUfY2NdQf_xR_q_-171" vertex="1">
          <mxGeometry width="70" height="80" as="geometry" />
        </mxCell>
        <mxCell id="zgO68wUfY2NdQf_xR_q_-173" value="" style="ellipse;shape=umlControl;whiteSpace=wrap;html=1;" parent="zgO68wUfY2NdQf_xR_q_-171" vertex="1">
          <mxGeometry x="20" y="5" width="70" height="80" as="geometry" />
        </mxCell>
        <mxCell id="zgO68wUfY2NdQf_xR_q_-174" value="Proyección&lt;div&gt;Reviews&lt;/div&gt;" style="ellipse;shape=umlControl;whiteSpace=wrap;html=1;" parent="zgO68wUfY2NdQf_xR_q_-171" vertex="1">
          <mxGeometry x="40" y="10" width="70" height="80" as="geometry" />
        </mxCell>
        <mxCell id="zgO68wUfY2NdQf_xR_q_-176" style="edgeStyle=orthogonalEdgeStyle;rounded=0;orthogonalLoop=1;jettySize=auto;html=1;" parent="1" source="zgO68wUfY2NdQf_xR_q_-173" target="zgO68wUfY2NdQf_xR_q_-57" edge="1">
          <mxGeometry relative="1" as="geometry" />
        </mxCell>
        <mxCell id="zgO68wUfY2NdQf_xR_q_-177" value="" style="group" parent="1" vertex="1" connectable="0">
          <mxGeometry x="990" y="1060" width="110" height="90" as="geometry" />
        </mxCell>
        <mxCell id="zgO68wUfY2NdQf_xR_q_-151" value="" style="ellipse;shape=umlControl;whiteSpace=wrap;html=1;" parent="zgO68wUfY2NdQf_xR_q_-177" vertex="1">
          <mxGeometry width="70" height="80" as="geometry" />
        </mxCell>
        <mxCell id="zgO68wUfY2NdQf_xR_q_-152" value="" style="ellipse;shape=umlControl;whiteSpace=wrap;html=1;" parent="zgO68wUfY2NdQf_xR_q_-177" vertex="1">
          <mxGeometry x="20" y="5" width="70" height="80" as="geometry" />
        </mxCell>
        <mxCell id="zgO68wUfY2NdQf_xR_q_-153" value="Filtro por&lt;div&gt;Género&lt;/div&gt;&lt;div&gt;Shooter&lt;/div&gt;" style="ellipse;shape=umlControl;whiteSpace=wrap;html=1;" parent="zgO68wUfY2NdQf_xR_q_-177" vertex="1">
          <mxGeometry x="40" y="10" width="70" height="80" as="geometry" />
        </mxCell>
        <mxCell id="zgO68wUfY2NdQf_xR_q_-178" value="" style="group" parent="1" vertex="1" connectable="0">
          <mxGeometry x="1340" y="920" width="110" height="90" as="geometry" />
        </mxCell>
        <mxCell id="zgO68wUfY2NdQf_xR_q_-179" value="" style="ellipse;shape=umlControl;whiteSpace=wrap;html=1;" parent="zgO68wUfY2NdQf_xR_q_-178" vertex="1">
          <mxGeometry width="70" height="80" as="geometry" />
        </mxCell>
        <mxCell id="zgO68wUfY2NdQf_xR_q_-180" value="" style="ellipse;shape=umlControl;whiteSpace=wrap;html=1;" parent="zgO68wUfY2NdQf_xR_q_-178" vertex="1">
          <mxGeometry x="20" y="5" width="70" height="80" as="geometry" />
        </mxCell>
        <mxCell id="zgO68wUfY2NdQf_xR_q_-181" value="Filtro por&lt;div&gt;Review&lt;/div&gt;&lt;div&gt;Positiva&lt;/div&gt;" style="ellipse;shape=umlControl;whiteSpace=wrap;html=1;" parent="zgO68wUfY2NdQf_xR_q_-178" vertex="1">
          <mxGeometry x="40" y="10" width="70" height="80" as="geometry" />
        </mxCell>
        <mxCell id="zgO68wUfY2NdQf_xR_q_-183" style="edgeStyle=orthogonalEdgeStyle;rounded=0;orthogonalLoop=1;jettySize=auto;html=1;" parent="1" source="zgO68wUfY2NdQf_xR_q_-152" target="zgO68wUfY2NdQf_xR_q_-101" edge="1">
          <mxGeometry relative="1" as="geometry" />
        </mxCell>
        <mxCell id="zgO68wUfY2NdQf_xR_q_-187" style="edgeStyle=orthogonalEdgeStyle;rounded=0;orthogonalLoop=1;jettySize=auto;html=1;" parent="1" source="zgO68wUfY2NdQf_xR_q_-180" target="zgO68wUfY2NdQf_xR_q_-64" edge="1">
          <mxGeometry relative="1" as="geometry" />
        </mxCell>
        <mxCell id="zgO68wUfY2NdQf_xR_q_-188" value="" style="group" parent="1" vertex="1" connectable="0">
          <mxGeometry x="1460" y="1310" width="110" height="90" as="geometry" />
        </mxCell>
        <mxCell id="zgO68wUfY2NdQf_xR_q_-189" value="" style="ellipse;shape=umlControl;whiteSpace=wrap;html=1;" parent="zgO68wUfY2NdQf_xR_q_-188" vertex="1">
          <mxGeometry width="70" height="80" as="geometry" />
        </mxCell>
        <mxCell id="zgO68wUfY2NdQf_xR_q_-190" value="" style="ellipse;shape=umlControl;whiteSpace=wrap;html=1;" parent="zgO68wUfY2NdQf_xR_q_-188" vertex="1">
          <mxGeometry x="20" y="5" width="70" height="80" as="geometry" />
        </mxCell>
        <mxCell id="zgO68wUfY2NdQf_xR_q_-191" value="Filtro por&lt;div&gt;Idioma&lt;/div&gt;&lt;div&gt;Ingles&lt;/div&gt;" style="ellipse;shape=umlControl;whiteSpace=wrap;html=1;" parent="zgO68wUfY2NdQf_xR_q_-188" vertex="1">
          <mxGeometry x="40" y="10" width="70" height="80" as="geometry" />
        </mxCell>
        <mxCell id="zgO68wUfY2NdQf_xR_q_-193" style="edgeStyle=orthogonalEdgeStyle;rounded=0;orthogonalLoop=1;jettySize=auto;html=1;" parent="1" source="zgO68wUfY2NdQf_xR_q_-190" edge="1">
          <mxGeometry relative="1" as="geometry">
            <mxPoint x="1515" y="1490" as="targetPoint" />
          </mxGeometry>
        </mxCell>
        <mxCell id="zgO68wUfY2NdQf_xR_q_-194" value="" style="group" parent="1" vertex="1" connectable="0">
          <mxGeometry x="740" y="1280" width="110" height="90" as="geometry" />
        </mxCell>
        <mxCell id="zgO68wUfY2NdQf_xR_q_-195" value="" style="ellipse;shape=umlControl;whiteSpace=wrap;html=1;" parent="zgO68wUfY2NdQf_xR_q_-194" vertex="1">
          <mxGeometry width="70" height="80" as="geometry" />
        </mxCell>
        <mxCell id="zgO68wUfY2NdQf_xR_q_-196" value="" style="ellipse;shape=umlControl;whiteSpace=wrap;html=1;" parent="zgO68wUfY2NdQf_xR_q_-194" vertex="1">
          <mxGeometry x="20" y="5" width="70" height="80" as="geometry" />
        </mxCell>
        <mxCell id="zgO68wUfY2NdQf_xR_q_-197" value="Joiner&lt;div&gt;Query 3&lt;/div&gt;" style="ellipse;shape=umlControl;whiteSpace=wrap;html=1;" parent="zgO68wUfY2NdQf_xR_q_-194" vertex="1">
          <mxGeometry x="40" y="10" width="70" height="80" as="geometry" />
        </mxCell>
        <mxCell id="zgO68wUfY2NdQf_xR_q_-201" style="edgeStyle=orthogonalEdgeStyle;rounded=0;orthogonalLoop=1;jettySize=auto;html=1;" parent="1" source="zgO68wUfY2NdQf_xR_q_-196" target="zgO68wUfY2NdQf_xR_q_-49" edge="1">
          <mxGeometry relative="1" as="geometry" />
        </mxCell>
        <mxCell id="zgO68wUfY2NdQf_xR_q_-205" value="" style="group" parent="1" vertex="1" connectable="0">
          <mxGeometry x="570" y="1280" width="100" height="80" as="geometry" />
        </mxCell>
        <mxCell id="zgO68wUfY2NdQf_xR_q_-112" value="" style="ellipse;shape=umlEntity;whiteSpace=wrap;html=1;" parent="zgO68wUfY2NdQf_xR_q_-205" vertex="1">
          <mxGeometry width="80" height="80" as="geometry" />
        </mxCell>
        <mxCell id="zgO68wUfY2NdQf_xR_q_-204" value="Joiner&lt;div&gt;Query 3&lt;/div&gt;&lt;div&gt;Dataset&lt;/div&gt;" style="ellipse;shape=umlEntity;whiteSpace=wrap;html=1;" parent="zgO68wUfY2NdQf_xR_q_-205" vertex="1">
          <mxGeometry x="20" width="80" height="80" as="geometry" />
        </mxCell>
        <mxCell id="zgO68wUfY2NdQf_xR_q_-206" style="edgeStyle=orthogonalEdgeStyle;rounded=0;orthogonalLoop=1;jettySize=auto;html=1;" parent="1" source="zgO68wUfY2NdQf_xR_q_-195" target="zgO68wUfY2NdQf_xR_q_-204" edge="1">
          <mxGeometry relative="1" as="geometry" />
        </mxCell>
        <mxCell id="zgO68wUfY2NdQf_xR_q_-207" value="Shardeo" style="edgeLabel;html=1;align=center;verticalAlign=middle;resizable=0;points=[];" parent="zgO68wUfY2NdQf_xR_q_-206" vertex="1" connectable="0">
          <mxGeometry x="-0.3023" y="1" relative="1" as="geometry">
            <mxPoint as="offset" />
          </mxGeometry>
        </mxCell>
        <mxCell id="zgO68wUfY2NdQf_xR_q_-209" value="" style="group" parent="1" vertex="1" connectable="0">
          <mxGeometry x="1270" y="1720" width="100" height="80" as="geometry" />
        </mxCell>
        <mxCell id="zgO68wUfY2NdQf_xR_q_-210" value="" style="ellipse;shape=umlEntity;whiteSpace=wrap;html=1;" parent="zgO68wUfY2NdQf_xR_q_-209" vertex="1">
          <mxGeometry width="80" height="80" as="geometry" />
        </mxCell>
        <mxCell id="zgO68wUfY2NdQf_xR_q_-211" value="Joiner&lt;div&gt;Query &lt;span style=&quot;background-color: initial;&quot;&gt;4&lt;/span&gt;&lt;/div&gt;&lt;div&gt;Dataset&lt;/div&gt;" style="ellipse;shape=umlEntity;whiteSpace=wrap;html=1;" parent="zgO68wUfY2NdQf_xR_q_-209" vertex="1">
          <mxGeometry x="20" width="80" height="80" as="geometry" />
        </mxCell>
        <mxCell id="zgO68wUfY2NdQf_xR_q_-212" value="" style="group" parent="1" vertex="1" connectable="0">
          <mxGeometry x="1460" y="1715" width="110" height="90" as="geometry" />
        </mxCell>
        <mxCell id="zgO68wUfY2NdQf_xR_q_-213" value="" style="ellipse;shape=umlControl;whiteSpace=wrap;html=1;" parent="zgO68wUfY2NdQf_xR_q_-212" vertex="1">
          <mxGeometry width="70" height="80" as="geometry" />
        </mxCell>
        <mxCell id="zgO68wUfY2NdQf_xR_q_-214" value="" style="ellipse;shape=umlControl;whiteSpace=wrap;html=1;" parent="zgO68wUfY2NdQf_xR_q_-212" vertex="1">
          <mxGeometry x="20" y="5" width="70" height="80" as="geometry" />
        </mxCell>
        <mxCell id="zgO68wUfY2NdQf_xR_q_-215" value="Joiner&lt;div&gt;Query 4&lt;/div&gt;" style="ellipse;shape=umlControl;whiteSpace=wrap;html=1;" parent="zgO68wUfY2NdQf_xR_q_-212" vertex="1">
          <mxGeometry x="40" y="10" width="70" height="80" as="geometry" />
        </mxCell>
        <mxCell id="zgO68wUfY2NdQf_xR_q_-218" style="edgeStyle=orthogonalEdgeStyle;rounded=0;orthogonalLoop=1;jettySize=auto;html=1;" parent="1" source="zgO68wUfY2NdQf_xR_q_-214" target="zgO68wUfY2NdQf_xR_q_-84" edge="1">
          <mxGeometry relative="1" as="geometry" />
        </mxCell>
        <mxCell id="zgO68wUfY2NdQf_xR_q_-219" style="edgeStyle=orthogonalEdgeStyle;rounded=0;orthogonalLoop=1;jettySize=auto;html=1;" parent="1" source="zgO68wUfY2NdQf_xR_q_-213" target="zgO68wUfY2NdQf_xR_q_-211" edge="1">
          <mxGeometry relative="1" as="geometry">
            <Array as="points">
              <mxPoint x="1495" y="1760" />
            </Array>
          </mxGeometry>
        </mxCell>
        <mxCell id="zgO68wUfY2NdQf_xR_q_-220" value="Shardeo" style="edgeLabel;html=1;align=center;verticalAlign=middle;resizable=0;points=[];" parent="zgO68wUfY2NdQf_xR_q_-219" vertex="1" connectable="0">
          <mxGeometry x="0.4605" y="2" relative="1" as="geometry">
            <mxPoint x="1" as="offset" />
          </mxGeometry>
        </mxCell>
        <mxCell id="zgO68wUfY2NdQf_xR_q_-221" value="" style="group" parent="1" vertex="1" connectable="0">
          <mxGeometry x="2020" y="1415" width="100" height="80" as="geometry" />
        </mxCell>
        <mxCell id="zgO68wUfY2NdQf_xR_q_-222" value="" style="ellipse;shape=umlEntity;whiteSpace=wrap;html=1;" parent="zgO68wUfY2NdQf_xR_q_-221" vertex="1">
          <mxGeometry width="80" height="80" as="geometry" />
        </mxCell>
        <mxCell id="zgO68wUfY2NdQf_xR_q_-223" value="Joiner&lt;div&gt;Query 5&lt;/div&gt;&lt;div&gt;Dataset&lt;/div&gt;" style="ellipse;shape=umlEntity;whiteSpace=wrap;html=1;" parent="zgO68wUfY2NdQf_xR_q_-221" vertex="1">
          <mxGeometry x="20" width="80" height="80" as="geometry" />
        </mxCell>
        <mxCell id="zgO68wUfY2NdQf_xR_q_-224" value="" style="group;rotation=90;" parent="1" vertex="1" connectable="0">
          <mxGeometry x="1780" y="1405" width="110" height="90" as="geometry" />
        </mxCell>
        <mxCell id="zgO68wUfY2NdQf_xR_q_-225" value="" style="ellipse;shape=umlControl;whiteSpace=wrap;html=1;" parent="zgO68wUfY2NdQf_xR_q_-224" vertex="1">
          <mxGeometry width="70" height="80" as="geometry" />
        </mxCell>
        <mxCell id="zgO68wUfY2NdQf_xR_q_-226" value="" style="ellipse;shape=umlControl;whiteSpace=wrap;html=1;" parent="zgO68wUfY2NdQf_xR_q_-224" vertex="1">
          <mxGeometry x="20" y="5" width="70" height="80" as="geometry" />
        </mxCell>
        <mxCell id="zgO68wUfY2NdQf_xR_q_-227" value="Joiner&lt;div&gt;Query 5&lt;/div&gt;" style="ellipse;shape=umlControl;whiteSpace=wrap;html=1;" parent="zgO68wUfY2NdQf_xR_q_-224" vertex="1">
          <mxGeometry x="40" y="10" width="70" height="80" as="geometry" />
        </mxCell>
        <mxCell id="zgO68wUfY2NdQf_xR_q_-232" style="edgeStyle=orthogonalEdgeStyle;rounded=0;orthogonalLoop=1;jettySize=auto;html=1;" parent="1" source="zgO68wUfY2NdQf_xR_q_-227" target="zgO68wUfY2NdQf_xR_q_-223" edge="1">
          <mxGeometry relative="1" as="geometry" />
        </mxCell>
        <mxCell id="zgO68wUfY2NdQf_xR_q_-233" value="Shardeo" style="edgeLabel;html=1;align=center;verticalAlign=middle;resizable=0;points=[];" parent="zgO68wUfY2NdQf_xR_q_-232" vertex="1" connectable="0">
          <mxGeometry x="-0.294" relative="1" as="geometry">
            <mxPoint as="offset" />
          </mxGeometry>
        </mxCell>
        <mxCell id="zgO68wUfY2NdQf_xR_q_-234" style="edgeStyle=orthogonalEdgeStyle;rounded=0;orthogonalLoop=1;jettySize=auto;html=1;" parent="1" source="zgO68wUfY2NdQf_xR_q_-226" target="zgO68wUfY2NdQf_xR_q_-109" edge="1">
          <mxGeometry relative="1" as="geometry" />
        </mxCell>
        <mxCell id="zgO68wUfY2NdQf_xR_q_-235" value="" style="group" parent="1" vertex="1" connectable="0">
          <mxGeometry x="1250" y="1970" width="100" height="80" as="geometry" />
        </mxCell>
        <mxCell id="zgO68wUfY2NdQf_xR_q_-236" value="" style="ellipse;shape=umlEntity;whiteSpace=wrap;html=1;" parent="zgO68wUfY2NdQf_xR_q_-235" vertex="1">
          <mxGeometry width="80" height="80" as="geometry" />
        </mxCell>
        <mxCell id="zgO68wUfY2NdQf_xR_q_-237" value="Counter&lt;div&gt;50.000&lt;/div&gt;&lt;div&gt;Dataset&lt;/div&gt;" style="ellipse;shape=umlEntity;whiteSpace=wrap;html=1;" parent="zgO68wUfY2NdQf_xR_q_-235" vertex="1">
          <mxGeometry x="20" width="80" height="80" as="geometry" />
        </mxCell>
        <mxCell id="zgO68wUfY2NdQf_xR_q_-238" value="" style="group" parent="1" vertex="1" connectable="0">
          <mxGeometry x="1460" y="1970" width="110" height="90" as="geometry" />
        </mxCell>
        <mxCell id="zgO68wUfY2NdQf_xR_q_-239" value="" style="ellipse;shape=umlControl;whiteSpace=wrap;html=1;" parent="zgO68wUfY2NdQf_xR_q_-238" vertex="1">
          <mxGeometry width="70" height="80" as="geometry" />
        </mxCell>
        <mxCell id="zgO68wUfY2NdQf_xR_q_-240" value="" style="ellipse;shape=umlControl;whiteSpace=wrap;html=1;" parent="zgO68wUfY2NdQf_xR_q_-238" vertex="1">
          <mxGeometry x="20" y="5" width="70" height="80" as="geometry" />
        </mxCell>
        <mxCell id="zgO68wUfY2NdQf_xR_q_-241" value="Counter&lt;div&gt;50.000&lt;/div&gt;" style="ellipse;shape=umlControl;whiteSpace=wrap;html=1;" parent="zgO68wUfY2NdQf_xR_q_-238" vertex="1">
          <mxGeometry x="40" y="10" width="70" height="80" as="geometry" />
        </mxCell>
        <mxCell id="zgO68wUfY2NdQf_xR_q_-245" style="edgeStyle=orthogonalEdgeStyle;rounded=0;orthogonalLoop=1;jettySize=auto;html=1;entryX=1;entryY=0.5;entryDx=0;entryDy=0;entryPerimeter=0;" parent="1" source="zgO68wUfY2NdQf_xR_q_-240" target="zgO68wUfY2NdQf_xR_q_-123" edge="1">
          <mxGeometry relative="1" as="geometry">
            <Array as="points">
              <mxPoint x="1515" y="2090" />
            </Array>
          </mxGeometry>
        </mxCell>
        <mxCell id="zgO68wUfY2NdQf_xR_q_-246" style="edgeStyle=orthogonalEdgeStyle;rounded=0;orthogonalLoop=1;jettySize=auto;html=1;" parent="1" source="zgO68wUfY2NdQf_xR_q_-239" target="zgO68wUfY2NdQf_xR_q_-237" edge="1">
          <mxGeometry relative="1" as="geometry" />
        </mxCell>
        <mxCell id="zgO68wUfY2NdQf_xR_q_-247" value="Shardeo" style="edgeLabel;html=1;align=center;verticalAlign=middle;resizable=0;points=[];" parent="zgO68wUfY2NdQf_xR_q_-246" vertex="1" connectable="0">
          <mxGeometry x="0.133" y="-2" relative="1" as="geometry">
            <mxPoint as="offset" />
          </mxGeometry>
        </mxCell>
        <mxCell id="zgO68wUfY2NdQf_xR_q_-248" value="Contador&lt;div&gt;Sistema&lt;/div&gt;&lt;div&gt;Operativo&lt;/div&gt;&lt;div&gt;Data&lt;/div&gt;" style="ellipse;shape=umlEntity;whiteSpace=wrap;html=1;" parent="1" vertex="1">
          <mxGeometry x="240" y="1405" width="80" height="80" as="geometry" />
        </mxCell>
        <mxCell id="zgO68wUfY2NdQf_xR_q_-250" value="" style="group" parent="1" vertex="1" connectable="0">
          <mxGeometry x="130" y="1025" width="110" height="90" as="geometry" />
        </mxCell>
        <mxCell id="zgO68wUfY2NdQf_xR_q_-251" value="" style="ellipse;shape=umlControl;whiteSpace=wrap;html=1;" parent="zgO68wUfY2NdQf_xR_q_-250" vertex="1">
          <mxGeometry width="70" height="80" as="geometry" />
        </mxCell>
        <mxCell id="zgO68wUfY2NdQf_xR_q_-252" value="" style="ellipse;shape=umlControl;whiteSpace=wrap;html=1;" parent="zgO68wUfY2NdQf_xR_q_-250" vertex="1">
          <mxGeometry x="20" y="5" width="70" height="80" as="geometry" />
        </mxCell>
        <mxCell id="zgO68wUfY2NdQf_xR_q_-253" value="Decodificador&lt;div&gt;Sistema Operativo&lt;/div&gt;" style="ellipse;shape=umlControl;whiteSpace=wrap;html=1;" parent="zgO68wUfY2NdQf_xR_q_-250" vertex="1">
          <mxGeometry x="40" y="10" width="70" height="80" as="geometry" />
        </mxCell>
        <mxCell id="zgO68wUfY2NdQf_xR_q_-255" style="edgeStyle=orthogonalEdgeStyle;rounded=0;orthogonalLoop=1;jettySize=auto;html=1;" parent="1" source="zgO68wUfY2NdQf_xR_q_-252" target="zgO68wUfY2NdQf_xR_q_-17" edge="1">
          <mxGeometry relative="1" as="geometry" />
        </mxCell>
        <mxCell id="aDrr3x9vKShk8wo-LBDL-7" style="edgeStyle=orthogonalEdgeStyle;rounded=0;orthogonalLoop=1;jettySize=auto;html=1;" edge="1" parent="1" source="aDrr3x9vKShk8wo-LBDL-1" target="aDrr3x9vKShk8wo-LBDL-3">
          <mxGeometry relative="1" as="geometry" />
        </mxCell>
        <mxCell id="aDrr3x9vKShk8wo-LBDL-1" value="Exchange" style="shape=hexagon;perimeter=hexagonPerimeter2;whiteSpace=wrap;html=1;fixedSize=1;" vertex="1" parent="1">
          <mxGeometry x="1475" y="1495" width="80" height="70" as="geometry" />
        </mxCell>
        <mxCell id="aDrr3x9vKShk8wo-LBDL-8" style="edgeStyle=orthogonalEdgeStyle;rounded=0;orthogonalLoop=1;jettySize=auto;html=1;" edge="1" parent="1" source="aDrr3x9vKShk8wo-LBDL-3" target="zgO68wUfY2NdQf_xR_q_-214">
          <mxGeometry relative="1" as="geometry" />
        </mxCell>
        <mxCell id="aDrr3x9vKShk8wo-LBDL-3" value="" style="shape=cylinder3;whiteSpace=wrap;html=1;boundedLbl=1;backgroundOutline=1;size=15;" vertex="1" parent="1">
          <mxGeometry x="1500" y="1590" width="30" height="100" as="geometry" />
        </mxCell>
        <mxCell id="aDrr3x9vKShk8wo-LBDL-9" value="N colas&lt;div&gt;x N Joinners&lt;/div&gt;&lt;div&gt;&lt;br&gt;&lt;/div&gt;" style="text;html=1;align=center;verticalAlign=middle;resizable=0;points=[];autosize=1;strokeColor=none;fillColor=none;" vertex="1" parent="1">
          <mxGeometry x="1540" y="1610" width="90" height="60" as="geometry" />
        </mxCell>
      </root>
    </mxGraphModel>
  </diagram>
</mxfile>
